<?xml version="1.0" encoding="iso-8859-1"?>
<!-- Generator: Adobe Illustrator 19.0.0, SVG Export Plug-In . SVG Version: 6.00 Build 0)  -->
<svg version="1.1" id="Layer_1" xmlns="http://www.w3.org/2000/svg" xmlns:xlink="http://www.w3.org/1999/xlink" x="0px" y="0px"
	 viewBox="0 0 512 512" style="enable-background:new 0 0 512 512;" xml:space="preserve">
<g>
	<g>
		<g>
			<path d="M503.684,298.314H353.846c-3.079,0-5.849-1.712-7.227-4.467l-28.339-56.678c-1.369-2.739-4.167-4.467-7.227-4.467
				c-0.012,0-0.024,0-0.036,0c-3.074,0.014-5.874,1.77-7.224,4.531l-38.145,78.025c-1.346,2.751-4.193,4.529-7.261,4.533
				c-3.105,0-5.884-1.731-7.253-4.518l-53.139-108.176c-1.328-2.704-4.051-4.444-7.062-4.515c-3.001-0.076-5.814,1.541-7.267,4.178
				l-49.459,89.759c-1.421,2.578-4.132,4.18-7.076,4.18H82.87c-0.277,0-0.552,0.014-0.822,0.041
				c-2.379-0.264-4.85,0.519-6.658,2.358c-3.13,3.182-3.087,8.297,0.095,11.427l137.63,135.437
				c2.936,2.828,13.706,12.388,29.04,16.677c4.368,1.223,9.421,2.092,14.96,2.092c12.5,0,27.463-4.435,42.535-19.265
				l137.182-134.993h66.853c4.464,0,8.081-3.617,8.081-8.081S508.147,298.314,503.684,298.314z M288.311,437.952
				c-30.308,29.823-58.618,5.543-63.913,0.441l-123.5-121.533h26.231c8.833,0,16.968-4.806,21.231-12.543l41.971-76.168
				l46.299,94.248c4.107,8.361,12.444,13.554,21.781,13.554c9.183-0.01,17.721-5.345,21.756-13.595l30.968-63.345l21.031,42.062
				c4.133,8.266,12.441,13.401,21.682,13.401h59.945L288.311,437.952z"/>
			<path d="M512,177.404c0-43.82-21.483-84.971-57.465-110.078c-3.661-2.553-8.697-1.656-11.25,2.003
				c-2.553,3.66-1.657,8.697,2.002,11.25c31.655,22.087,50.553,58.282,50.553,96.824c0,1.224-0.026,2.567-0.079,4.108
				c-0.008,0.191-0.008,0.38,0,0.571c1.128,31.24-10.791,61.728-32.73,83.909h-94.2l-36.255-72.513
				c-4.133-8.266-12.441-13.401-21.79-13.401c-9.288,0.042-17.593,5.25-21.672,13.595l-30.776,62.952l-45.013-91.629
				c-3.998-8.143-12.117-13.334-21.201-13.548c-9.057-0.213-17.418,4.605-21.788,12.536L112.81,268.377H51.374
				c-0.306-0.463-0.663-0.902-1.074-1.307c-21.999-21.648-34.027-50.578-33.868-81.461c0.001-0.185-0.004-0.372-0.016-0.557
				c-0.171-2.674-0.254-5.176-0.254-7.65c0-65.052,52.923-117.975,117.975-117.975c50.94,0,95.944,32.461,111.986,80.775
				c0.403,1.214,1.088,2.314,2,3.213l2.338,2.302c3.145,3.094,8.188,3.096,11.336,0.002l1.961-1.93
				c0.919-0.904,1.607-2.014,2.009-3.239c15.943-48.523,60.99-81.123,112.098-81.123c15.455,0,30.475,2.94,44.645,8.739
				c4.134,1.689,8.849-0.289,10.539-4.418c1.689-4.13-0.289-8.849-4.418-10.539c-16.123-6.597-33.203-9.942-50.767-9.942
				c-52.952,0-100.183,30.78-121.863,77.997c-21.688-47.201-68.96-77.997-121.865-77.997C60.173,43.268,0,103.442,0,177.404
				c0,2.694,0.091,5.52,0.269,8.402c-0.094,30.524,10.242,59.36,29.355,82.573H8.081c-4.463,0-8.081,3.618-8.081,8.081
				c0,4.464,3.618,8.08,8.081,8.08h109.501c2.945,0,5.656-1.601,7.077-4.181l59.828-108.576c1.435-2.604,4.277-4.259,7.267-4.178
				c3.024,0.071,5.73,1.801,7.063,4.515l52.284,106.431c1.359,2.766,4.172,4.518,7.252,4.518c0.002,0,0.005,0,0.008,0
				c3.083-0.003,5.898-1.762,7.253-4.531l38.018-77.766c1.36-2.782,4.128-4.518,7.26-4.531c3.08,0,5.85,1.711,7.227,4.467
				l38.49,76.981c1.369,2.737,4.166,4.467,7.227,4.467h100.108c1.6,0,3.087-0.471,4.341-1.272c1.823-0.148,3.607-0.906,5.013-2.291
				c25.781-25.368,39.849-60.636,38.625-96.803C511.974,180.175,512,178.738,512,177.404z"/>
		</g>
	</g>
</g>
<g>
</g>
<g>
</g>
<g>
</g>
<g>
</g>
<g>
</g>
<g>
</g>
<g>
</g>
<g>
</g>
<g>
</g>
<g>
</g>
<g>
</g>
<g>
</g>
<g>
</g>
<g>
</g>
<g>
</g>
</svg>
